<svg width="185" height="312" viewBox="0 0 185 312" fill="none" xmlns="http://www.w3.org/2000/svg">
<path d="M0.332031 154.832C3.80043 141.068 12.6385 124.556 25.0791 107.509C37.5428 90.4312 53.5986 72.847 71.4238 56.9938C89.2496 41.14 108.835 27.0265 128.354 16.88C147.693 6.82736 166.935 0.686427 184.322 0.577443L184.322 311.129C149.333 310.896 105.83 287.68 69.79 256.562C51.6961 240.94 35.5096 223.347 23.2539 205.719C11.0203 188.123 2.72501 170.524 0.332031 154.832Z" fill="white" stroke="#DCDCDC"/>
<path d="M81.7408 153.591L53.0879 153.959L81.2048 103.107L101.745 109.834L81.7408 153.591Z" fill="#6C6464"/>
<path d="M104.441 106.693L83.2102 99.1978C90.7586 90.401 110.739 78.6479 119.786 73.871L120.05 98.7243L104.441 106.693Z" fill="#6C6464"/>
<path d="M124.561 73.8096L124.776 94.0029C131.343 91.3293 145.153 85.3519 147.855 82.8315C150.558 80.311 153.463 75.5095 154.578 73.4238L154.422 58.6671C145.17 61.2717 130.66 69.8474 124.561 73.8096Z" fill="#6C6464"/>
<path d="M81.7447 155.451L53.0898 155.338L81.6233 205.937L102.108 199.028L81.7447 155.451Z" fill="#6C6464"/>
<path d="M104.829 202.145L83.6607 209.829C91.2811 218.558 111.357 230.133 120.443 234.829L120.503 209.974L104.829 202.145Z" fill="#6C6464"/>
<path d="M125.219 234.848L125.267 214.654C131.856 217.269 145.715 223.123 148.438 225.619C151.161 228.115 154.106 232.891 155.238 234.967L155.203 249.724C145.93 247.202 131.35 238.756 125.219 234.848Z" fill="#6C6464"/>
</svg>
