 <svg
        xmlns="http://www.w3.org/2000/svg"
        width="20"
        height="20"
        viewBox="0 0 20 20"
        fill="none"
      >
        <path
          d="M1.40625 3.40601C1.40625 2.30144 2.30124 1.40601 3.40581 1.40601C3.75625 1.40601 4.15292 1.40601 4.60423 1.40601H5.46875H13.125C14.075 1.40601 14.8438 2.17476 14.8438 3.12476V5.88101C14.1125 5.61851 13.325 5.46851 12.5 5.46851C8.625 5.46851 5.46875 8.62476 5.46875 12.4998C5.46875 15.106 6.89375 17.381 9.00625 18.5935H3.125C2.175 18.5935 1.40625 17.8248 1.40625 16.8748V5.46851V3.40601ZM6.40625 12.4998C6.40625 15.8623 9.1375 18.5935 12.5 18.5935C15.8625 18.5935 18.5938 15.8623 18.5938 12.4998C18.5938 9.13726 15.8625 6.40601 12.5 6.40601C9.1375 6.40601 6.40625 9.13726 6.40625 12.4998Z"
          fill="#1558F6"
        />
        <g clipPath="url(#clip0_1_5844)">
          <path
            d="M15.9271 9.0729C15.9271 9.0729 15.9913 9.20482 15.9993 9.22432C16.0154 9.26327 16.0362 9.31806 16.0573 9.38619C16.0995 9.52192 16.1439 9.71372 16.154 9.94051C16.1743 10.4006 16.0513 10.9974 15.5039 11.542C15.4975 11.5484 15.4907 11.5544 15.4838 11.5602L13.2741 13.3705L12.3023 14.208L12.4266 15.5747C12.4384 15.7047 12.3592 15.8257 12.2354 15.867L11.4113 16.1417C11.2748 16.1872 11.1259 16.1223 11.0664 15.9913L10.4233 14.5765L9.00843 13.9334C8.87739 13.8739 8.81247 13.725 8.85799 13.5885L9.13269 12.7644C9.17396 12.6406 9.29499 12.5614 9.42497 12.5733L10.7918 12.6975L11.6293 11.7259L13.4371 9.51406C13.4431 9.50679 13.4494 9.49982 13.456 9.49317C14.0019 8.94729 14.5992 8.82509 15.0594 8.84578C15.2863 8.85598 15.4781 8.90053 15.6138 8.94267C15.682 8.96382 15.7368 8.98461 15.7757 9.00069C15.7952 9.00874 15.9271 9.0729 15.9271 9.0729Z"
            fill="white"
          />
          <path
            d="M12.3698 9.93127L11.1984 11.3644L10.9247 11.682L9.39166 10.7599C9.31749 10.7152 9.26799 10.639 9.25746 10.5531C9.24693 10.4672 9.27654 10.3812 9.33774 10.32L10.2759 9.38171L12.3698 9.93127Z"
            fill="white"
          />
          <path
            d="M15.0682 12.6281L13.6361 13.8014L13.3181 14.0754L14.24 15.608C14.2847 15.6821 14.3609 15.7316 14.4468 15.7422C14.5327 15.7527 14.6187 15.7231 14.6799 15.6619L15.6182 14.7238L15.0682 12.6281Z"
            fill="white"
          />
        </g>
        <defs>
          <clipPath id="clip0_1_5844">
            <rect
              width="9"
              height="9"
              fill="white"
              transform="translate(8 8)"
            />
          </clipPath>
        </defs>
      </svg>