<svg width="44" height="44" viewBox="0 0 44 44" fill="none" xmlns="http://www.w3.org/2000/svg">
<mask id="path-1-inside-1_1_4888" fill="white">
<path d="M44 38C44 41.3137 41.3137 44 38 44H6C2.68629 44 0 41.3137 0 38V6C0 2.68629 2.68629 0 6 0H38C41.3137 0 44 2.68629 44 6V38Z"/>
</mask>
<path d="M44 38C44 41.3137 41.3137 44 38 44H6C2.68629 44 0 41.3137 0 38V6C0 2.68629 2.68629 0 6 0H38C41.3137 0 44 2.68629 44 6V38Z" fill="#F8FAFC"/>
<path d="M38 44V43H6V44V45H38V44ZM0 38H1V6H0H-1V38H0ZM6 0V1H38V0V-1H6V0ZM44 6H43V38H44H45V6H44ZM38 0V1C40.7614 1 43 3.23857 43 6H44H45C45 2.13401 41.866 -1 38 -1V0ZM0 6H1C1 3.23857 3.23857 1 6 1V0V-1C2.13401 -1 -1 2.13401 -1 6H0ZM6 44V43C3.23857 43 1 40.7614 1 38H0H-1C-1 41.866 2.13401 45 6 45V44ZM38 44V45C41.866 45 45 41.866 45 38H44H43C43 40.7614 40.7614 43 38 43V44Z" fill="#E2E8F0" mask="url(#path-1-inside-1_1_4888)"/>
<path d="M40 36C37.7909 36 36 34.2091 36 32V12C36 9.79086 37.7909 8 40 8V36Z" fill="#CAD5E2"/>
<path d="M43 31C41.3431 31 40 29.6569 40 28V16C40 14.3431 41.3431 13 43 13V31Z" fill="#62748E"/>
<path d="M37 4C37 5.10457 36.1046 6 35 6H9C7.89543 6 7 5.10457 7 4C7 2.89543 7.89543 2 9 2H35C36.1046 2 37 2.89543 37 4Z" fill="#E2E8F0"/>
<path d="M37 40C37 41.1046 36.1046 42 35 42H9C7.89543 42 7 41.1046 7 40C7 38.8954 7.89543 38 9 38H35C36.1046 38 37 38.8954 37 40Z" fill="#E2E8F0"/>
</svg>
